<?xml version="1.0" encoding="UTF-8"?>
<svg width="1288px" height="415px" viewBox="0 0 1288 415" version="1.1" xmlns="http://www.w3.org/2000/svg" xmlns:xlink="http://www.w3.org/1999/xlink">
    <!-- Generator: Sketch 58 (84663) - https://sketch.com -->
    <title>Artboard</title>
    <desc>Created with Sketch.</desc>
    <defs>
        <polygon id="path-1" points="0 0 362 0 362 362 0 362"></polygon>
    </defs>
    <g id="Artboard" stroke="none" stroke-width="1" fill="none" fill-rule="evenodd">
        <rect fill="#0F0F0F" x="0" y="0" width="1288" height="415"></rect>
        <path d="M1122.74822,313 L1122.74822,105.375869 C1122.74822,66.5088994 1154.31235,35 1193.24822,35 C1232.18332,35 1263.74822,66.5088994 1263.74822,105.375869 L1263.74822,313 L1122.74822,313 Z" id="Fill-1" fill="#BC99FF"></path>
        <rect id="Rectangle" fill="#252525" x="1041.25" y="148" width="169" height="204" rx="12"></rect>
        <g id="Group-3" transform="translate(926.000000, 113.000000)">
            <mask id="mask-2" fill="white">
                <use xlink:href="#path-1"></use>
            </mask>
            <g id="Clip-2"></g>
            <path d="M300.332874,25.721429 L300.332874,61.6662074 L264.387177,61.6662074 C250.181599,61.6662074 238.665748,73.1829772 238.665748,87.3876363 L238.665748,123.333333 L202.72097,123.333333 C188.515392,123.333333 176.999541,134.848266 176.999541,149.054762 L176.999541,184.999541 L141.053844,184.999541 C126.848266,184.999541 115.332415,196.515392 115.332415,210.72097 L115.332415,246.666667 L79.3876363,246.666667 C65.1820586,246.666667 53.6662074,258.182518 53.6662074,272.388096 L53.6662074,308.333793 L17.721429,308.333793 C3.5158512,308.333793 -8,319.848725 -8,334.055222 L-8,370 L53.6662074,370 L362,370 L362,61.6662074 L362,0 L326.054303,0 C311.848725,0 300.332874,11.5158512 300.332874,25.721429" id="Fill-1" fill="#9270FF" mask="url(#mask-2)"></path>
        </g>
    </g>
</svg>